THE SNAKES - LIVE IN NORWAY 1998

JORN LANDE, MICKY MOODY, BERNIE MARSDEN
THE SNAKES LIVE AT GRAND BAR ARENDAL, NORWAY 27.03.1998
AUDIENCE SHOT - 95 MINUTES

PAL



1. Sweet Talker
2. Walkin' in the shadow of the blues
3. Trouble
4. Slow n'easy
5. Don't break my heart again
6. Ready and Willing
7. Cryin' in the rain
8. Young Blood
9. Lovehunter
10. Ain't No Love in the heart of the city
11. Fool for your loving
12. Wine Women An'Song
13. Here I Go Again

Bernie Marsden (Guitar)
Micky Moody (Guitar)
Jorn Lande (Vocal)
Sid Ringsby (Bass)
Willy Bendsiksen (Drums)

I can´t seed 24/7
My upload speed is low, please be patient


the dvd has a menu

General
Complete name : F:\marsden\VTS_01_0.IFO
Format : DVD Video
Format profile : Program
File size : 64.0 KiB
Duration : 1h 34mn
Overall bit rate : 92 bps

Video
ID : 224 (0xE0)
Format : MPEG Video
Format version : Version 2
Duration : 1h 34mn
Bit rate mode : Variable
Width : 720 pixels
Height : 576 pixels
Display aspect ratio : 4:3
Frame rate : 25.000 fps
Standard : PAL
Compression mode : Lossy

Audio
ID : 0 (0x0)
Format : MPEG Audio
Format profile : Version 1
Duration : 1h 34mn
Channel(s) : 2 channels
Sampling rate : 48.0 KHz
Compression mode : Lossy

Menu
Duration : 1h 34mn
00:00:00.000 : Chapter 1
00:05:55.920 : Chapter 2
00:11:46.880 : Chapter 3
00:18:00.360 : Chapter 4
00:25:18.240 : Chapter 5
00:31:07.520 : Chapter 6
00:39:34.040 : Chapter 7
00:48:12.440 : Chapter 8
00:53:14.480 : Chapter 9
01:05:59.440 : Chapter 10
01:14:54.600 : Chapter 11
01:21:30.320 : Chapter 12
01:27:25.240 : Chapter 13

vts_01.1.vob

General
Complete name : F:\marsden\VTS_01_1.VOB
Format : MPEG-PS
File size : 1 024 MiB
Duration : 22mn 39s
Overall bit rate : 6 319 Kbps

Video
ID : 224 (0xE0)
Format : MPEG Video
Format version : Version 2
Format profile : Main@Main
Format settings, BVOP : Yes
Format settings, Matrix : Default
Format settings, GOP : M=3, N=12
Duration : 22mn 39s
Bit rate mode : Variable
Bit rate : 5 970 Kbps
Nominal bit rate : 8 500 Kbps
Width : 720 pixels
Height : 576 pixels
Display aspect ratio : 4:3
Frame rate : 25.000 fps
Standard : PAL
Color space : YUV
Chroma subsampling : 4:2:0
Bit depth : 8 bits
Scan type : Interlaced
Scan order : Top Field First
Compression mode : Lossy
Bits/(Pixel*Frame) : 0.576
Stream size : 967 MiB (94%)

Audio
ID : 192 (0xC0)
Format : MPEG Audio
Format version : Version 1
Format profile : Layer 2
Duration : 22mn 39s
Bit rate mode : Constant
Bit rate : 224 Kbps
Channel(s) : 2 channels
Sampling rate : 48.0 KHz
Compression mode : Lossy
Stream size : 36.3 MiB (4%)


Quote:
The Snakes were formed by Whitesnake guitarists Bernie Marsden and Micky Moody, exclusively performing Whitesnake songs. Initially, the project was called 'Saints and Sinners' and was to feature other former Whitesnake band mates including, bassist Neil Murray and drummer Cozy Powell plus American vocalist John West but this never materialised. During August 1998, the Once Bitten album was released in Japan on the Pony Canyon label. Former Vagabond vocalist Jørn Lande was drafted in and TNT guitarist Ronni Le Tekrø produced the band. TNT's touring keyboard player Dag Stokke engineered the album. A live album Live in Europe was released in December 1998, with recordings of live performances of Whitesnake songs.